<svg xmlns="http://www.w3.org/2000/svg" viewBox="0 0 828 865"><g><g><g><path fill="#e2e2f7" d="M102.574 781.993H775.77c3.735 0 6.794-3.06 6.794-6.794 0-3.739-3.06-6.794-6.794-6.794H102.574c-3.735 0-6.794 3.055-6.794 6.794 0 3.735 3.06 6.794 6.794 6.794z"/></g><g><g><g><g><path fill="#fff" d="M301.922 146.675l-.315.408c-.148.187-14.719 18.861-33.121 21.112-8.214 1.01-15.98-1.373-23.142-7.062-18.89-14.997-6.62-34.956 8.918-60.233 13.165-21.415 28.072-45.662 29.148-73.958 15.03 9.972 38.98 31.687 56.889 56.538 20.13 27.92 26.16 51.062 16.987 65.163-5.458 8.38-12.252 13.05-20.198 13.877a25.13 25.13 0 0 1-2.601.134c-16.427 0-32.042-15.452-32.204-15.615zm-37.07 22.647a29.867 29.867 0 0 0 3.746-.232c17.272-2.116 31.167-18.32 33.407-21.065 2.607 2.471 18.814 17.103 35.173 15.395 8.235-.856 15.25-5.664 20.862-14.286 12.04-18.5-2.604-46.2-17.005-66.182-18.25-25.316-42.754-47.4-57.798-57.206l-.676-.44-.025.805c-.816 28.397-15.813 52.792-29.044 74.316-15.77 25.656-28.227 45.919-8.712 61.414 6.267 4.974 13.003 7.48 20.072 7.48z"/></g><g><path fill="#fff" d="M279.192 245.501c.195-.252 19.57-26.226 23.22-98.119 3.645-71.838-11.698-107.047-11.854-107.394l-.827.369c.156.343 15.413 35.39 11.779 106.978-3.637 71.56-22.842 97.365-23.037 97.617z"/></g><g><path fill="#fff" d="M258.267 135.741c12.108-13.592 35.629-15.35 43.994-9.257l.531-.73c-8.81-6.433-32.58-4.782-45.204 9.388z"/></g><g><path fill="#fff" d="M302.413 108.702c.166-.123 17.08-12.154 40.74-.87l.386-.817c-24.164-11.526-41.484.835-41.66.957z"/></g><g><path fill="#fff" d="M277.945 82.526c.076-.105 8.019-10.175 21.062-5.41l.31-.85c-13.69-4.987-22.007 5.603-22.09 5.708z"/></g><g><path fill="#fff" d="M295.637 57.25c.043-.033 3.995-3.338 12.2-.307l.312-.846c-8.738-3.229-12.931.322-13.108.474z"/></g><g><path fill="#fff" d="M346.251 127.224l.437-.79c-24.24-13.441-44.174-3.002-44.38-2.898l.43.795c.188-.105 19.714-10.298 43.513 2.893z"/></g><g><path fill="#fff" d="M267.969 106.426c16.456-12.59 33.429-4.818 33.591-4.742l.387-.813c-.177-.083-17.62-8.101-34.527 4.837z"/></g><g><path fill="#fff" d="M300.488 84.628c.097-.086 10.294-9.105 26.035-2.658l.346-.838c-16.282-6.664-26.887 2.738-26.988 2.832z"/></g><g><path fill="#fff" d="M283.063 61.674c5.158-4.739 12.884-.509 12.964-.466l.444-.787c-.087-.047-8.376-4.598-14.022.585z"/></g><g><path fill="#fff" d="M292.787 46.858c.065-.069 1.582-1.596 5.41-.455l.264-.863c-4.432-1.322-6.26.621-6.339.704l.668.61-.335-.307z"/></g></g></g><g><g><g><path fill="#33ff9d" d="M750.22 548.313c-15.03 24.002-16.359 52.432-17.529 77.542-1.38 29.636-2.467 53.042-26.526 54.808-9.146.679-16.897-1.752-23.102-7.188-13.95-12.227-15.478-35.849-15.492-36.087l-.033-.513-.505.094c-.235.047-24.175 4.45-37.485-6.794-6.1-5.154-9.088-12.837-8.878-22.831.346-16.821 18.355-32.559 50.708-44.312 28.137-10.222 59.359-14.726 77.596-14.726.422 0 .834.004 1.246.007zm-46.985 133.361c.98 0 1.98-.036 2.995-.108 24.857-1.824 25.966-25.587 27.364-55.671 1.177-25.237 2.514-53.84 17.818-77.777l.433-.675-.805-.018c-18.002-.343-50.644 4.107-79.973 14.762-23.149 8.409-50.842 23.07-51.3 45.135-.217 10.287 2.878 18.204 9.2 23.543 12.558 10.608 34.197 7.646 37.74 7.08.308 3.524 2.673 24.737 15.76 36.209 5.7 4.999 12.678 7.52 20.768 7.52z"/></g><g><path fill="#33ff9d" d="M630.704 731.353l.903-.05c-.018-.318-1.373-32.458 35.895-93.655 37.305-61.252 69.624-81.605 69.946-81.804l-.473-.769c-.325.202-32.83 20.671-70.242 82.104-37.442 61.482-36.047 93.856-36.03 94.174z"/></g><g><path fill="#33ff9d" d="M709.773 652.403l.9-.12c-2.431-18.594-20.737-33.204-31.696-33.204-.13 0-.26.004-.386.007l.029.903c.115-.003.231-.007.347-.007 10.406 0 28.476 14.57 30.806 32.42z"/></g><g><path fill="#33ff9d" d="M688.502 605.205l.853-.303c-.073-.202-7.437-20.166-33.902-24.236l-.134.896c25.905 3.984 33.115 23.445 33.183 23.643z"/></g><g><path fill="#33ff9d" d="M723.462 597.335l.903-.047c-.007-.134-.92-13.57-15.05-17.15l-.221.875c13.49 3.42 14.361 16.196 14.368 16.322z"/></g><g><path fill="#33ff9d" d="M723.058 566.485l.874-.224c-.054-.227-1.517-5.519-10.569-7.77l-.22.879c8.492 2.113 9.9 7.068 9.915 7.115z"/></g><g><path fill="#33ff9d" d="M679.436 617.941l.806-.415c-.109-.202-10.703-20.047-38.32-22.579l-.083.896c27.108 2.489 37.5 21.903 37.597 22.098z"/></g><g><path fill="#33ff9d" d="M718.25 622.709l.86-.282c-6.693-20.205-25.623-23.405-25.815-23.434l-.14.888c.187.033 18.58 3.157 25.095 22.828z"/></g><g><path fill="#33ff9d" d="M703.64 586.39l.874-.212c-.029-.138-3.504-13.87-20.707-17.522l-.192.881c16.659 3.533 19.992 16.72 20.025 16.854z"/></g><g><path fill="#33ff9d" d="M730.964 577.224l.882-.206c-1.752-7.463-11.165-8.37-11.259-8.38l-.08.903c.091.007 8.857.86 10.457 7.683z"/></g><g><path fill="#33ff9d" d="M731.264 559.5l.896-.13c-.018-.116-.444-2.753-4.84-4.15l-.275.86c3.815 1.21 4.205 3.33 4.22 3.42z"/></g></g></g><g><g><path fill="#252f5a" d="M398.577 154.75s20.686 63.127 70.011 46.13C529.468 179.9 454.483 85.59 481.848.27 427.332 13.527 309.52 75.822 322.726 130.316c13.21 54.49 75.851 24.435 75.851 24.435z"/></g><g><path fill="#fff" d="M382.771 297.89l.864-.286c-.145-.43-13.794-44.406 15.376-142.727 29.177-98.335 66.453-138.36 66.825-138.753l-.654-.621c-.376.393-37.792 40.544-67.038 139.118-29.26 98.642-15.513 142.831-15.373 143.268z"/></g><g><path fill="#fff" d="M463.217 159.8l.83-.34c-10.243-25.034-41.356-38.52-56.259-34.056l.26.863c14.224-4.255 45.269 9.355 55.169 33.533z"/></g><g><path fill="#fff" d="M416.518 102.29l.748-.508c-.17-.253-17.569-25.06-55.549-21.03l.102.9c37.394-3.984 54.53 20.393 54.7 20.639z"/></g><g><path fill="#fff" d="M462 78.68l.86-.282c-.058-.18-6.116-18.075-26.523-18.075h-.365l.007.903h.354c19.765 0 25.609 17.276 25.667 17.453z"/></g><g><path fill="#fff" d="M450.145 36.134l.788-.44c-.163-.286-4.024-6.975-17.283-6.777l.014.903c12.635-.191 16.445 6.25 16.481 6.314z"/></g><g><path fill="#fff" d="M408.626 123.193l.672-.607c-.22-.238-22.062-23.734-61.053-17.142l.148.889c38.493-6.488 60.02 16.625 60.233 16.86z"/></g><g><path fill="#fff" d="M464.059 115.612l.755-.495C448.227 89.725 421 92.235 420.734 92.25l.09.899c.285-.029 26.966-2.442 43.235 22.463z"/></g><g><path fill="#fff" d="M430.58 70.758l.794-.426c-.09-.173-9.214-16.618-32.374-16.618-.816 0-1.643.021-2.492.065l.043.903c24.453-1.243 33.935 15.903 34.029 16.076z"/></g><g><path fill="#fff" d="M465.005 48.09l.798-.423c-5.082-9.56-18.28-7.386-18.42-7.365l.155.892c.119-.021 12.696-2.076 17.467 6.896z"/></g><g><path fill="#fff" d="M458.948 23.492l.83-.354c-.06-.144-1.574-3.532-8.043-3.846l-.044.903c5.859.285 7.199 3.174 7.257 3.297z"/></g></g><g><g><path fill="#252f5a" d="M727.027 656.669s-8.975 36.01 19.411 42.628c35.036 8.17 27.592-58.73 65.893-90.964-29.73-9.929-103.977-15.473-113.925 14.232-9.947 29.704 28.621 34.104 28.621 34.104z"/></g><g><path fill="#fff" d="M677.692 719.856c.061-.245 6.674-25.06 49.635-62.848 43.004-37.835 72.474-45.666 72.767-45.738l-.22-.878c-.297.076-29.98 7.965-73.146 45.937-43.207 38.012-49.853 63.061-49.914 63.31z"/></g><g><path fill="#fff" d="M756.797 678.39c2.612-14.985-8.2-30.722-16.637-33.06l-.242.871c7.936 2.196 18.476 17.75 15.99 32.035z"/></g><g><path fill="#fff" d="M750.906 637.19l.903-.033c-.007-.17-.874-17.204-20.14-26.628l-.394.81c18.76 9.178 19.624 25.688 19.631 25.85z"/></g><g><path fill="#fff" d="M780.322 639.7c.029-.105 2.543-10.634-7.437-16.76l-.473.77c9.405 5.775 7.137 15.365 7.036 15.77z"/></g><g><path fill="#fff" d="M787.38 615.915c.007-.188.159-4.623-6.26-8.524l-.466.77c5.92 3.6 5.823 7.67 5.823 7.71z"/></g><g><path fill="#fff" d="M740.966 644.764l.888-.16c-.029-.18-3.406-17.886-23.91-26.406l-.348.83c20.032 8.326 23.337 25.559 23.37 25.736z"/></g><g><path fill="#fff" d="M769.439 657.619l.903-.015c-.3-17.06-14.032-24.03-14.17-24.099l-.4.813c.133.065 13.374 6.805 13.667 23.3z"/></g><g><path fill="#fff" d="M767.828 626.494c.011-.119.636-11.478-11.674-18.385l-.444.788c11.818 6.628 11.226 17.428 11.219 17.532z"/></g><g><path fill="#fff" d="M790.854 626.003c.448-6.173-6.58-9.127-6.65-9.153l-.343.831c.066.03 6.491 2.742 6.094 8.257z"/></g><g><path fill="#fff" d="M795.29 612.624c.014-.09.328-2.26-2.742-4.403l-.516.74c2.568 1.792 2.376 3.454 2.366 3.526z"/></g></g><g><g><path fill="#33ff9d" d="M118.994 660.183s11.439 51.03-28.773 59.406C40.593 729.923 53.318 635.925.439 589.241c42.212-13 146.996-18.32 160.013 23.857 13.021 42.18-41.458 47.085-41.458 47.085z"/></g><g><path fill="#252f5a" d="M186.56 750.807l.88-.195c-.08-.354-8.589-35.809-68.14-90.761-59.51-54.91-101.019-66.998-101.427-67.114l-.245.867c.411.116 41.732 12.165 101.059 66.911 59.348 54.761 67.796 89.945 67.872 90.292z"/></g><g><path fill="#252f5a" d="M76.51 689.758l.896-.134c-3.038-20.299 12.414-41.953 23.73-44.795l-.22-.874c-11.898 2.987-27.566 24.695-24.406 45.803z"/></g><g><path fill="#252f5a" d="M85.818 631.934c.014-.231 1.791-23.568 28.632-35.917l-.372-.82c-27.357 12.58-29.149 36.44-29.163 36.683z"/></g><g><path fill="#252f5a" d="M44.66 634.455l.881-.199c-.033-.14-3.041-14.288 10.525-22.18l-.451-.784c-14.152 8.235-10.988 23.015-10.955 23.163z"/></g><g><path fill="#252f5a" d="M35.525 600.748l.903-.021c0-.062-.014-5.895 8.553-10.825l-.451-.784c-9.07 5.22-9.012 11.37-9.005 11.63z"/></g><g><path fill="#252f5a" d="M99.576 642.907c.054-.246 5.291-24.507 33.891-35.603l-.325-.838c-29.08 11.28-34.397 36.011-34.447 36.264z"/></g><g><path fill="#252f5a" d="M59.032 660.093c.964-23.344 19.948-32.44 20.14-32.53l-.383-.816c-.199.09-19.67 9.399-20.66 33.31z"/></g><g><path fill="#252f5a" d="M62.705 616.298l.903-.04c-.007-.152-.455-15.506 16.485-24.493l-.423-.794c-17.463 9.257-16.972 25.164-16.965 25.327z"/></g><g><path fill="#252f5a" d="M30.288 614.839l.903-.044c-.383-7.92 8.882-11.573 8.979-11.609l-.325-.845c-.098.04-9.973 3.92-9.557 12.498z"/></g><g><path fill="#252f5a" d="M24.483 595.825l.896-.119-.448.061.448-.057c-.01-.102-.253-2.55 3.536-5.06l-.502-.756c-4.298 2.85-3.948 5.808-3.93 5.931z"/></g></g><g><g><g><path fill="#252f5a" d="M150.494 563.433l-.108.506c-.073.35-7.647 35.307-30.46 47.006-10.479 5.37-22.618 5.071-36.08-.874-22.636-10.009-33.794-43.322-31.42-93.8 2.12-45.084 14.263-91.165 24.777-115.362 23.926 34.029 61.729 51.922 95.107 67.721 39.396 18.649 70.513 33.375 59.261 67.081-4.269 12.776-11.962 21.965-22.874 27.31-24.496 12.01-57.394.701-57.723.582zm-46.555 52.236c5.82 0 11.298-1.307 16.402-3.926 21.697-11.125 29.799-42.784 30.817-47.125 4.18 1.354 34.737 10.58 57.932-.784 11.14-5.458 18.992-14.823 23.334-27.834 11.511-34.469-19.927-49.35-59.728-68.186-33.49-15.853-71.451-33.819-95.214-68.082l-.46-.661-.324.737c-10.616 24.063-23.026 70.762-25.176 116.42-1.69 35.994 2.478 81.634 31.955 94.666 7.203 3.186 14.04 4.775 20.462 4.775z"/></g><g><path fill="#252f5a" d="M257.39 666.121l.296-.852c-.437-.156-44.713-16.475-106.492-101.504-61.79-85.047-71.097-140.32-71.184-140.87l-.889.141c.084.553 9.406 56.018 71.34 141.26 61.978 85.3 106.484 101.67 106.929 101.825z"/></g><g><path fill="#252f5a" d="M133.561 538.565c5.407-14.246 35.841-30.998 61.678-23.962l.242-.874c-26.758-7.256-57.113 9.633-62.765 24.518z"/></g><g><path fill="#252f5a" d="M68.448 548.35c20.09-32.916 50.571-31.666 50.907-31.63l.047-.903c-.325.003-31.36-1.3-51.723 32.06z"/></g><g><path fill="#252f5a" d="M98.08 475.294c12.328-16.438 30.254-10.352 30.428-10.287l.303-.852c-.191-.065-18.731-6.368-31.45 10.594z"/></g><g><path fill="#252f5a" d="M71.092 457.592c7.733-10.403 15.354-9.47 15.423-9.47l.126-.893c-.335-.047-8.184-1.054-16.275 9.825z"/></g><g><path fill="#252f5a" d="M80.15 574.652c18.729-35.365 50.955-38.457 51.28-38.482l-.076-.903c-.329.029-33.039 3.146-52.001 38.962z"/></g><g><path fill="#252f5a" d="M114.591 507.52c.144-.231 14.86-23.43 45.236-21.159l.069-.9c-30.984-2.354-45.926 21.348-46.074 21.586z"/></g><g><path fill="#252f5a" d="M68.17 503.276c14.256-20.639 34.104-17.677 34.306-17.648l.145-.896c-.213-.032-20.617-3.066-35.192 18.031z"/></g><g><path fill="#252f5a" d="M88.99 453.406c.06-.12 6.259-11.653 16.517-9.911l.148-.896c-10.894-1.817-17.403 10.265-17.46 10.388z"/></g><g><path fill="#252f5a" d="M74.505 436.931c3.894-4.597 7.174-3.85 7.217-3.846l.22-.874c-.155-.044-3.84-.929-8.13 4.132z"/></g></g></g></g><g><g><g><path fill="#f5f5f7" d="M747.594 761.195c-13.971 0-13.971-111.407 0-111.407h-416.95c-13.971 0-13.971 111.407 0 111.407z"/></g><g><g><path fill="#ebebed" d="M322.51 668.902h417.687a1.807 1.807 0 0 0 0-3.612H322.51a1.807 1.807 0 0 0 0 3.612z"/></g><g><path fill="#ebebed" d="M322.51 690.841h417.687a1.807 1.807 0 0 0 0-3.612H322.51a1.807 1.807 0 0 0 0 3.612z"/></g><g><path fill="#ebebed" d="M322.51 723.75h417.687a1.807 1.807 0 0 0 0-3.612H322.51a1.807 1.807 0 0 0 0 3.612z"/></g><g><path fill="#ebebed" d="M322.51 745.689h417.687a1.807 1.807 0 0 0 0-3.612H322.51a1.807 1.807 0 0 0 0 3.612z"/></g><g><path fill="#ebebed" d="M322.51 679.872h417.687a1.807 1.807 0 0 0 0-3.612H322.51a1.807 1.807 0 0 0 0 3.612z"/></g><g><path fill="#ebebed" d="M322.51 701.81h417.687a1.807 1.807 0 0 0 0-3.611H322.51a1.807 1.807 0 0 0 0 3.612z"/></g><g><path fill="#ebebed" d="M322.51 712.78h417.687a1.807 1.807 0 0 0 0-3.612H322.51a1.807 1.807 0 0 0 0 3.612z"/></g><g><path fill="#ebebed" d="M322.51 734.72h417.687a1.807 1.807 0 0 0 0-3.612H322.51a1.807 1.807 0 0 0 0 3.612z"/></g></g><g><g><path fill="#1fa2ff" d="M330.644 761.195c-13.971 0-13.971-111.407 0-111.407h-203.57c-13.971 0-13.971 111.407 0 111.407z"/></g><g><path fill="#1fa2ff" d="M129.187 753.957c-7.224-12.931-7.224-83.978 0-96.945h188.472c-2.709 9.138-4.732 24.092-4.732 48.472 0 24.417 2.023 39.335 4.732 48.473H129.187zm-19.83-48.473c0 62.92 13.328 62.92 17.735 62.92h203.57a7.222 7.222 0 0 0 7.224-7.223c0-3.143-2.059-5.852-4.876-6.827-7.55-11.955-7.55-85.784 0-97.74 2.817-.975 4.876-3.648 4.876-6.826 0-3.973-3.25-7.224-7.224-7.224h-203.57c-4.407 0-17.735 0-17.735 62.92z"/></g></g><g><g><path fill="#12d7fa" d="M167.004 753.957c1.011 5.815 2.203 10.763 3.648 14.448h53.601c-1.444-3.685-2.636-8.633-3.648-14.448-4.406-26.331-4.406-70.614 0-96.945 1.012-5.815 2.204-10.764 3.648-14.448h-53.601c-1.445 3.684-2.637 8.633-3.648 14.448-4.443 26.331-4.443 70.614 0 96.945z"/></g></g><g><path fill="#12d7fa" d="M330.644 657.012h-.036m.036 111.407h416.95a7.224 7.224 0 0 0 0-14.448H332.768c-7.242-12.956-7.242-84.003 0-96.96h414.826a7.224 7.224 0 0 0 0-14.447h-416.95c-4.378 0-17.702 0-17.702 62.928 0 62.927 13.324 62.927 17.702 62.927z"/></g><g><g><path fill="#ebebed" d="M381.717 679.301v48.769a2.681 2.681 0 0 1-3.536 2.543l-11.645-3.926-11.645 3.926a2.684 2.684 0 0 1-3.54-2.543V679.3a2.354 2.354 0 0 1 2.351-2.351h25.663a2.354 2.354 0 0 1 2.352 2.351z"/></g><g><path fill="#ebebed" d="M366.532 724.88c-.191 0-.39.03-.578.094l-11.641 3.927a.833.833 0 0 1-.791-.12.86.86 0 0 1-.365-.711V679.3c0-.296.25-.545.55-.545h25.659c.3 0 .545.249.545.545v48.769a.86.86 0 0 1-.365.712.837.837 0 0 1-.787.119l-11.645-3.927a1.798 1.798 0 0 0-.582-.093zm12.501 7.68c.929 0 1.846-.29 2.619-.846a4.49 4.49 0 0 0 1.87-3.644V679.3a4.163 4.163 0 0 0-4.156-4.157h-25.66a4.166 4.166 0 0 0-4.16 4.157v48.769c0 1.441.7 2.806 1.87 3.644a4.471 4.471 0 0 0 4.05.607l11.066-3.731 11.07 3.731c.467.16.95.239 1.431.239z"/></g></g><g><g><path fill="#33ff9d" d="M383.443 677.994v48.768a2.679 2.679 0 0 1-3.536 2.54l-11.645-3.927-11.645 3.927c-1.737.585-3.54-.705-3.54-2.54v-48.768c0-1.3 1.055-2.352 2.356-2.352h25.659a2.35 2.35 0 0 1 2.351 2.352z"/></g><g><path fill="#33ff9d" d="M381.092 677.448c.3 0 .545.246.545.546v48.768a.845.845 0 0 1-.36.708.858.858 0 0 1-.795.123l-11.642-3.926a1.808 1.808 0 0 0-1.156 0l-11.648 3.926a.85.85 0 0 1-.788-.123.845.845 0 0 1-.36-.708v-48.768c0-.3.241-.546.541-.546zm-25.33 53.8c.483 0 .967-.075 1.433-.234l11.067-3.732 11.064 3.732a4.51 4.51 0 0 0 4.056-.607 4.493 4.493 0 0 0 1.867-3.645v-48.768a4.163 4.163 0 0 0-4.157-4.158h-25.663a4.157 4.157 0 0 0-4.154 4.158v48.768c0 1.445.697 2.807 1.868 3.645.773.552 1.69.841 2.618.841z"/></g></g></g><g><g><path fill="#ebebed" d="M106.717 635.34c13.97 0 13.97-111.41 0-111.41h259.436c13.971 0 13.971 111.41 0 111.41z"/></g><g><g><path fill="#f5f5f7" d="M374.287 543.044h-260.17c-1 0-1.805-.81-1.805-1.806 0-.997.805-1.806 1.806-1.806h260.17a1.807 1.807 0 0 1 0 3.612z"/></g><g><path fill="#f5f5f7" d="M374.287 564.983h-260.17c-1 0-1.805-.81-1.805-1.806 0-.997.805-1.806 1.806-1.806h260.17a1.807 1.807 0 0 1 0 3.612z"/></g><g><path fill="#f5f5f7" d="M374.287 597.891h-260.17c-1 0-1.805-.805-1.805-1.806 0-.997.805-1.806 1.806-1.806h260.17a1.807 1.807 0 0 1 0 3.612z"/></g><g><path fill="#f5f5f7" d="M374.287 619.834h-260.17c-1 0-1.805-.81-1.805-1.806 0-1 .805-1.806 1.806-1.806h260.17a1.807 1.807 0 0 1 0 3.612z"/></g><g><path fill="#f5f5f7" d="M374.287 554.013h-260.17c-1 0-1.805-.809-1.805-1.806s.805-1.806 1.806-1.806h260.17a1.807 1.807 0 0 1 0 3.612z"/></g><g><path fill="#f5f5f7" d="M374.287 575.952h-260.17c-1 0-1.805-.805-1.805-1.806 0-.997.805-1.806 1.806-1.806h260.17a1.807 1.807 0 0 1 0 3.612z"/></g><g><path fill="#f5f5f7" d="M374.287 586.922h-260.17c-1 0-1.805-.806-1.805-1.806 0-.997.805-1.806 1.806-1.806h260.17a1.807 1.807 0 0 1 0 3.612z"/></g><g><path fill="#f5f5f7" d="M374.287 608.864h-260.17c-1 0-1.805-.809-1.805-1.806 0-1 .805-1.806 1.806-1.806h260.17a1.807 1.807 0 0 1 0 3.612z"/></g></g><g><g><g><path fill="#ff8a33" d="M366.153 635.34c13.971 0 13.971-111.41 0-111.41h287.136c13.971 0 13.971 111.41 0 111.41z"/></g><g><path fill="#ff8a33" d="M651.176 628.098H379.138c2.709-9.138 4.732-24.055 4.732-48.472 0-24.381-2.023-39.334-4.732-48.473h272.038c7.224 12.967 7.224 84.014 0 96.945zm2.095-111.393H366.135c-3.973 0-7.224 3.251-7.224 7.224 0 3.179 2.059 5.852 4.876 6.827 7.549 11.955 7.549 85.784 0 97.74-2.817.975-4.876 3.684-4.876 6.826 0 4.01 3.25 7.224 7.224 7.224H653.27c4.407 0 17.735 0 17.735-62.92s-13.328-62.92-17.735-62.92z"/></g></g></g><g><g><path fill="#ffa76c" d="M613.36 628.098c-1.012 5.815-2.204 10.764-3.649 14.448h-27.73c1.446-3.684 2.638-8.633 3.649-14.448 4.407-26.331 4.407-70.614 0-96.945-1.011-5.815-2.203-10.764-3.648-14.448h27.729c1.445 3.684 2.637 8.633 3.648 14.448 4.443 26.331 4.443 70.614 0 96.945z"/></g></g><g><g><path fill="#ffa76c" d="M450.052 628.098c-1.012 5.815-2.204 10.764-3.649 14.448h-27.729c1.445-3.684 2.637-8.633 3.649-14.448 4.406-26.331 4.406-70.614 0-96.945-1.012-5.815-2.204-10.764-3.649-14.448h27.73c1.444 3.684 2.636 8.633 3.648 14.448 4.442 26.331 4.442 70.614 0 96.945z"/></g></g><g><g><path fill="#ffa76c" d="M574.36 628.098c-1.01 5.815-2.203 10.764-3.647 14.448h-17.356c1.445-3.684 2.637-8.633 3.648-14.448 4.407-26.331 4.407-70.614 0-96.945-1.011-5.815-2.203-10.764-3.648-14.448h17.356c1.444 3.684 2.636 8.633 3.648 14.448 4.442 26.331 4.442 70.614 0 96.945z"/></g></g><g><g><path fill="#ffa76c" d="M550.023 628.098c-1.011 5.815-2.203 10.764-3.648 14.448H529.02c1.445-3.684 2.637-8.633 3.648-14.448 4.406-26.331 4.406-70.614 0-96.945-1.011-5.815-2.203-10.764-3.648-14.448h17.355c1.445 3.684 2.637 8.633 3.648 14.448 4.443 26.331 4.443 70.614 0 96.945z"/></g></g><g><path fill="#d86212" d="M366.153 531.153h.036m-.036 111.41c4.378 0 17.702 0 17.702-62.927 0-62.93-13.324-62.93-17.702-62.93H106.717a7.224 7.224 0 0 0 0 14.448h257.312c7.242 12.955 7.242 84.006 0 96.962H106.717a7.224 7.224 0 0 0 0 14.448h259.436z"/></g><g><g><path fill="#ebebed" d="M315.08 553.446v48.769a2.68 2.68 0 0 0 3.536 2.539l11.645-3.926 11.645 3.926a2.68 2.68 0 0 0 3.536-2.54v-48.768a2.35 2.35 0 0 0-2.351-2.351h-25.66a2.35 2.35 0 0 0-2.351 2.351z"/></g><g><path fill="#ebebed" d="M330.26 599.022c-.19 0-.386.032-.577.094l-11.645 3.926a.837.837 0 0 1-.787-.12.852.852 0 0 1-.365-.707v-48.769c0-.3.246-.549.545-.549h25.66c.3 0 .545.25.545.55v48.768a.85.85 0 0 1-.361.708.833.833 0 0 1-.791.119l-11.642-3.926a1.886 1.886 0 0 0-.581-.094zm-11.066 7.444l11.067-3.735 11.07 3.735a4.493 4.493 0 0 0 4.05-.607 4.502 4.502 0 0 0 1.867-3.644v-48.769a4.164 4.164 0 0 0-4.157-4.16h-25.66a4.164 4.164 0 0 0-4.157 4.16v48.769a4.5 4.5 0 0 0 1.87 3.644 4.5 4.5 0 0 0 4.05.607z"/></g></g><g><g><path fill="#1fa2ff" d="M313.353 552.135v48.769c0 1.835 1.8 3.128 3.536 2.539l11.645-3.926 11.645 3.926c1.738.589 3.536-.704 3.536-2.54v-48.768a2.352 2.352 0 0 0-2.35-2.351h-25.66a2.352 2.352 0 0 0-2.352 2.351z"/></g><g><path fill="#1fa2ff" d="M341.368 551.59c.3 0 .541.245.541.545v48.769a.86.86 0 0 1-.364.711.851.851 0 0 1-.784.12l-11.649-3.927a1.808 1.808 0 0 0-1.156 0l-11.64 3.926a.865.865 0 0 1-.796-.119.859.859 0 0 1-.36-.711v-48.769c0-.3.245-.545.545-.545zm-.333 53.803c.929 0 1.846-.292 2.615-.845a4.481 4.481 0 0 0 1.871-3.644v-48.769a4.162 4.162 0 0 0-4.153-4.157h-25.663a4.163 4.163 0 0 0-4.158 4.157v48.769c0 1.44.698 2.806 1.868 3.644a4.494 4.494 0 0 0 4.052.607l11.067-3.731 11.067 3.73c.466.16.95.24 1.434.24z"/></g></g></g><g><g><g><path fill="#23d87d" d="M620.135 443.448H143.317c-25.74 0-25.74 67.922 0 67.922h476.818"/></g><g><path fill="#23d87d" d="M143.317 517.088h476.818a5.719 5.719 0 0 0 0-11.435H143.317c-8.824 0-13.585-14.553-13.585-28.246 0-13.69 4.76-28.242 13.585-28.242h476.818a5.719 5.719 0 0 0 0-11.435H143.317c-17.193 0-25.02 20.566-25.02 39.677 0 19.115 7.827 39.681 25.02 39.681z"/></g></g><g><path fill="#f5f5f7" d="M761.962 511.37c-25.742 0-25.742-67.922 0-67.922H431.923c-25.742 0-25.742 67.922 0 67.922z"/></g><g><g><path fill="#ebebed" d="M425.483 465.813H745.39a1.43 1.43 0 1 0 0-2.857H425.483a1.427 1.427 0 0 0 0 2.857z"/></g><g><path fill="#ebebed" d="M425.483 491.862H745.39a1.43 1.43 0 1 0 0-2.857H425.483a1.427 1.427 0 0 0 0 2.857z"/></g><g><path fill="#ebebed" d="M425.483 457.13h321.93a1.429 1.429 0 1 0 0-2.857h-321.93a1.427 1.427 0 0 0 0 2.857z"/></g><g><path fill="#ebebed" d="M425.483 474.496h317.881a1.429 1.429 0 1 0 0-2.857H425.483a1.427 1.427 0 0 0 0 2.857z"/></g><g><path fill="#ebebed" d="M425.483 483.179h317.881a1.429 1.429 0 1 0 0-2.857H425.483a1.427 1.427 0 0 0 0 2.857z"/></g><g><path fill="#ebebed" d="M425.483 500.545h321.93a1.429 1.429 0 1 0 0-2.857h-321.93a1.427 1.427 0 0 0 0 2.857z"/></g></g><g><path fill="#33ff9d" d="M431.923 517.088h330.04a5.719 5.719 0 0 0 0-11.435h-330.04c-8.824 0-13.584-14.553-13.584-28.246 0-13.69 4.76-28.242 13.584-28.242h330.04a5.719 5.719 0 0 0 0-11.435h-330.04c-17.193 0-25.023 20.566-25.023 39.677 0 19.115 7.83 39.681 25.023 39.681z"/></g><g><g><g><path fill="#ebebed" d="M469.498 458.791v23.344a2.123 2.123 0 0 1-2.799 2.012l-9.218-3.11-9.217 3.11a2.122 2.122 0 0 1-2.8-2.012v-23.344c0-1.03.831-1.86 1.86-1.86h20.31c1.03 0 1.864.83 1.864 1.86z"/></g><g><path fill="#ebebed" d="M467.635 458.358c.238 0 .433.195.433.433v23.344a.68.68 0 0 1-.29.564.678.678 0 0 1-.624.094l-9.214-3.11a1.474 1.474 0 0 0-.917 0l-9.218 3.11a.694.694 0 0 1-.914-.658v-23.344c0-.238.195-.433.433-.433zm-.26 27.328a3.55 3.55 0 0 0 3.554-3.55V458.79a3.297 3.297 0 0 0-3.294-3.29h-20.31a3.297 3.297 0 0 0-3.295 3.29v23.344a3.56 3.56 0 0 0 1.485 2.886 3.572 3.572 0 0 0 3.204.48l8.762-2.954 8.76 2.955a3.6 3.6 0 0 0 1.133.184z"/></g></g><g><g><path fill="#ff8a33" d="M470.864 457.754V481.1a2.122 2.122 0 0 1-2.8 2.011l-9.217-3.11-9.218 3.11a2.122 2.122 0 0 1-2.8-2.011v-23.345c0-1.029.835-1.86 1.86-1.86h20.315c1.029 0 1.86.831 1.86 1.86z"/></g><g><path fill="#ff8a33" d="M458.847 478.57c-.156 0-.311.026-.459.076l-9.214 3.11a.688.688 0 0 1-.914-.657v-23.345c0-.238.195-.433.433-.433h20.31c.239 0 .43.195.43.433V481.1a.688.688 0 0 1-.91.657l-9.218-3.11a1.422 1.422 0 0 0-.458-.076zm9.893 6.08c.733 0 1.463-.228 2.073-.666a3.556 3.556 0 0 0 1.48-2.885v-23.344a3.291 3.291 0 0 0-3.29-3.291h-20.31a3.294 3.294 0 0 0-3.294 3.29V481.1c0 1.141.553 2.217 1.481 2.885.928.665 2.12.846 3.204.481l8.763-2.955 8.762 2.955c.369.123.751.184 1.13.184z"/></g></g></g><g><path fill="#33ff9d" d="M152.361 486.264h222.565c4.873 0 8.857-3.984 8.857-8.857 0-4.869-3.984-8.853-8.857-8.853H152.361c-4.873 0-8.857 3.984-8.857 8.853 0 4.873 3.984 8.857 8.857 8.857z"/></g></g><g><g><g/><g><path fill="#12d7fa" d="M164.187 437.726H374.24a7.224 7.224 0 0 0 0-14.448H166.101c-15.856-9.485-25.652-29.452-25.692-52.615a7.07 7.07 0 0 0-.27-1.943L81.407 160.104H435.53l59.572 211.592c.347 28.773 13.614 53.674 34.773 65.156a7.238 7.238 0 0 0 3.45.874h129.318a7.224 7.224 0 0 0 0-14.448H535.236c-15.857-9.485-25.656-29.448-25.692-52.615 0-.657-.094-1.311-.274-1.943l-61.313-217.798a7.222 7.222 0 0 0-6.953-5.266H71.872a7.238 7.238 0 0 0-5.761 2.864 7.214 7.214 0 0 0-1.192 6.318L125.97 371.7c.35 28.765 13.617 53.67 34.772 65.152a7.224 7.224 0 0 0 3.446.874z"/></g></g><g><path fill="#f5f5f7" d="M503.317 401.072c9.767-10.8-57.155-243.71-76.682-243.71H76.882l67.067 242.796z"/></g><g><g><path fill="#ebebed" d="M474.44 361.084a1.802 1.802 0 0 0 1.792-2.052C468.547 303 450.014 242.218 419.57 173.215a1.803 1.803 0 0 0-2.38-.92 1.8 1.8 0 0 0-.921 2.38c30.304 68.688 48.75 129.152 56.386 184.845a1.804 1.804 0 0 0 1.784 1.564z"/></g><g><path fill="#ebebed" d="M463.268 361.084a1.808 1.808 0 0 0 1.795-2.052c-7.672-56.328-26.201-117.11-56.665-185.82a1.805 1.805 0 1 0-3.3 1.466c30.318 68.393 48.764 128.857 56.385 184.842a1.804 1.804 0 0 0 1.785 1.564z"/></g><g><path fill="#ebebed" d="M452.1 361.084a1.806 1.806 0 0 0 1.791-2.048c-7.646-56.603-26.183-117.385-56.664-185.828a1.81 1.81 0 0 0-2.384-.914 1.809 1.809 0 0 0-.918 2.388c30.344 68.121 48.787 128.582 56.387 184.838a1.81 1.81 0 0 0 1.788 1.564z"/></g><g><path fill="#ebebed" d="M440.928 361.084a1.802 1.802 0 0 0 1.792-2.048c-7.517-56.08-26.585-118.602-56.669-185.828a1.81 1.81 0 0 0-2.384-.914 1.807 1.807 0 0 0-.91 2.388c29.94 66.911 48.91 129.098 56.386 184.834.12.907.896 1.568 1.785 1.568z"/></g><g><path fill="#ebebed" d="M429.756 361.084a1.806 1.806 0 0 0 1.795-2.044c-7.506-56.365-26.57-118.888-56.668-185.836a1.807 1.807 0 0 0-3.294 1.481c29.954 66.627 48.924 128.814 56.379 184.831a1.81 1.81 0 0 0 1.788 1.568z"/></g><g><path fill="#ebebed" d="M418.584 361.084c.083 0 .159-.007.242-.018a1.804 1.804 0 0 0 1.553-2.026c-7.48-56.625-26.548-119.148-56.668-185.84a1.806 1.806 0 1 0-3.294 1.489c29.98 66.37 48.946 128.55 56.38 184.824.118.91.895 1.571 1.787 1.571z"/></g><g><path fill="#ebebed" d="M407.42 361.084c.079 0 .155-.007.238-.018a1.806 1.806 0 0 0 1.557-2.023c-7.466-56.895-26.534-119.422-56.68-185.846a1.805 1.805 0 1 0-3.286 1.496c29.997 66.095 48.967 128.278 56.379 184.816a1.81 1.81 0 0 0 1.791 1.575z"/></g><g><path fill="#ebebed" d="M396.248 361.084c.076 0 .159-.007.235-.018a1.804 1.804 0 0 0 1.56-2.023c-7.448-57.159-26.515-119.686-56.679-185.846-.415-.906-1.499-1.311-2.391-.896a1.808 1.808 0 0 0-.896 2.395c30.015 65.832 48.986 128.012 56.383 184.813.119.91.896 1.575 1.788 1.575z"/></g><g><path fill="#ebebed" d="M385.076 361.084c.076 0 .155-.007.235-.014a1.808 1.808 0 0 0 1.56-2.023c-7.422-57.412-26.49-119.942-56.679-185.853a1.807 1.807 0 0 0-2.39-.889 1.804 1.804 0 0 0-.893 2.391c30.037 65.582 49.007 127.762 56.379 184.813.12.91.896 1.575 1.788 1.575z"/></g><g><path fill="#ebebed" d="M373.904 361.084c.08 0 .155-.007.235-.014a1.808 1.808 0 0 0 1.56-2.023c-5.591-43.557-17.243-88.049-35.632-136.023a1.81 1.81 0 0 0-2.33-1.04 1.81 1.81 0 0 0-1.043 2.333c18.283 47.7 29.87 91.925 35.422 135.189a1.806 1.806 0 0 0 1.788 1.578z"/></g><g><path fill="#ebebed" d="M362.732 361.084c.08 0 .156-.007.235-.014a1.807 1.807 0 0 0 1.56-2.02c-7.372-57.932-26.446-120.462-56.678-185.864a1.806 1.806 0 1 0-3.28 1.517c30.08 65.066 49.047 127.242 56.375 184.803a1.81 1.81 0 0 0 1.788 1.578z"/></g><g><path fill="#ebebed" d="M351.564 361.084c.076 0 .152-.007.228-.014a1.808 1.808 0 0 0 1.567-2.02c-7.346-58.166-26.421-120.7-56.682-185.864a1.798 1.798 0 0 0-2.398-.881 1.81 1.81 0 0 0-.874 2.402c30.101 64.824 49.068 127 56.371 184.795a1.806 1.806 0 0 0 1.788 1.582z"/></g><g><path fill="#ebebed" d="M340.393 361.084c.075 0 .151-.007.227-.014a1.81 1.81 0 0 0 1.568-2.016c-7.329-58.434-26.4-120.968-56.68-185.871a1.806 1.806 0 1 0-3.276 1.528c30.124 64.56 49.09 126.732 56.372 184.791.113.91.893 1.582 1.789 1.582z"/></g><g><path fill="#ebebed" d="M329.22 361.084a1.807 1.807 0 0 0 1.795-2.03c-7.299-58.673-26.37-121.21-56.678-185.875a1.808 1.808 0 0 0-3.272 1.535c30.149 64.322 49.111 126.491 56.368 184.784a1.807 1.807 0 0 0 1.788 1.586z"/></g><g><path fill="#ebebed" d="M318.049 361.084a1.802 1.802 0 0 0 1.795-2.026c-7.27-58.911-26.345-121.449-56.682-185.882a1.808 1.808 0 0 0-2.402-.864 1.801 1.801 0 0 0-.864 2.402c30.175 64.087 49.137 126.256 56.365 184.784a1.807 1.807 0 0 0 1.788 1.586z"/></g><g><path fill="#ebebed" d="M306.88 361.084a1.805 1.805 0 0 0 1.795-2.026c-7.252-59.164-26.323-121.705-56.685-185.886a1.809 1.809 0 0 0-2.406-.86 1.805 1.805 0 0 0-.86 2.406c30.197 63.827 49.16 125.996 56.365 184.78a1.81 1.81 0 0 0 1.792 1.586z"/></g><g><path fill="#ebebed" d="M295.709 361.084a1.803 1.803 0 0 0 1.795-2.026c-4.815-39.584-14.917-80.764-30.033-122.395a1.809 1.809 0 0 0-2.312-1.08 1.8 1.8 0 0 0-1.08 2.312c15.019 41.375 25.056 82.284 29.842 121.6.108.917.889 1.589 1.788 1.589z"/></g><g><path fill="#ebebed" d="M284.537 361.084a1.806 1.806 0 0 0 1.795-2.026c-7.191-59.627-26.262-122.171-56.686-185.89a1.8 1.8 0 0 0-2.409-.852 1.804 1.804 0 0 0-.852 2.405c30.253 63.369 49.216 125.534 56.364 184.774.108.914.889 1.589 1.788 1.589z"/></g><g><path fill="#ebebed" d="M273.369 361.084a1.804 1.804 0 0 0 1.795-2.023c-7.17-59.879-26.244-122.423-56.69-185.896a1.81 1.81 0 0 0-2.409-.85c-.9.43-1.282 1.51-.849 2.41 30.272 63.115 49.235 125.28 56.365 184.766a1.805 1.805 0 0 0 1.788 1.593z"/></g><g><path fill="#ebebed" d="M262.197 361.084a1.804 1.804 0 0 0 1.799-2.019c-7.145-60.11-26.22-122.659-56.697-185.904-.434-.9-1.524-1.282-2.41-.842-.899.43-1.274 1.51-.84 2.41 30.3 62.887 49.263 125.05 56.36 184.762a1.808 1.808 0 0 0 1.788 1.593z"/></g><g><path fill="#ebebed" d="M251.029 361.084a1.802 1.802 0 0 0 1.795-2.02c-7.119-60.34-26.194-122.889-56.697-185.907a1.806 1.806 0 1 0-3.25 1.575c30.33 62.653 49.292 124.815 56.364 184.756a1.8 1.8 0 0 0 1.788 1.596z"/></g><g><path fill="#ebebed" d="M239.857 361.084a1.809 1.809 0 0 0 1.799-2.015c-7.09-60.58-26.165-123.128-56.7-185.915-.437-.9-1.532-1.257-2.413-.835a1.809 1.809 0 0 0-.835 2.417c30.355 62.418 49.318 124.576 56.358 184.752a1.81 1.81 0 0 0 1.791 1.596z"/></g><g><path fill="#ebebed" d="M228.685 361.084a1.809 1.809 0 0 0 1.799-2.016c-7.058-60.8-26.136-123.351-56.7-185.914a1.81 1.81 0 0 0-2.417-.83 1.804 1.804 0 0 0-.83 2.412c30.387 62.198 49.35 124.356 56.357 184.748a1.81 1.81 0 0 0 1.791 1.6z"/></g><g><path fill="#ebebed" d="M217.514 361.084a1.802 1.802 0 0 0 1.799-2.015c-7.033-61.024-26.108-123.576-56.698-185.919a1.806 1.806 0 1 0-3.243 1.59c30.41 61.973 49.372 124.128 56.35 184.744a1.81 1.81 0 0 0 1.792 1.6z"/></g><g><path fill="#ebebed" d="M206.346 361.084c.068 0 .137-.004.205-.014a1.806 1.806 0 0 0 1.593-1.998c-7.003-61.251-26.078-123.807-56.704-185.925a1.808 1.808 0 0 0-2.416-.82 1.803 1.803 0 0 0-.82 2.416c30.438 61.743 49.397 123.901 56.346 184.737a1.813 1.813 0 0 0 1.796 1.604z"/></g><g><path fill="#ebebed" d="M195.174 361.084c.068 0 .137-.004.206-.014a1.804 1.804 0 0 0 1.592-1.998c-6.97-61.472-26.045-124.027-56.7-185.929a1.807 1.807 0 1 0-3.24 1.604c30.474 61.526 49.43 123.677 56.35 184.733a1.807 1.807 0 0 0 1.792 1.604z"/></g><g><path fill="#ebebed" d="M184.002 361.084a1.815 1.815 0 0 0 1.799-2.012c-3.049-27.064-8.46-54.533-16.085-81.648a1.803 1.803 0 0 0-2.228-1.254 1.809 1.809 0 0 0-1.25 2.229c7.574 26.93 12.945 54.208 15.972 81.081a1.807 1.807 0 0 0 1.792 1.604z"/></g></g><g><path fill="#ddd" d="M80.718 157.362c14.765 8.575 36.026 52.237 53.872 113.535 34.205 117.472 31.984 106.426 12.931 118.664-18.251 11.72-11.728 1.997-11.728 1.997L74.758 156.766z"/></g><g><path fill="#fff" d="M720.511 430.502s-18.312-19.129-26.537-35.047a5.254 5.254 0 0 0-5.32-2.81c-18.298 2.175-101.128 10.963-195.815 4.244-57.907-4.106-251.804-32.276-338.455-12.735-10.753 2.427-16.366 14.473-11.302 24.261 4.999 9.658 12.233 19.924 21.105 22.087z"/></g><g><path fill="#ddd" d="M364.791 390.29c.538 14.524 5.317 34.032 6.892 40.198H164.176c-8.868-2.16-16.099-12.404-21.098-22.051-5.1-9.85.629-21.878 11.454-24.309 48.613-10.922 130.847-6.888 203.938-.476a6.915 6.915 0 0 1 6.321 6.638z"/></g><g><path fill="#12d7fa" d="M266.575 437.726h476.8a7.224 7.224 0 0 0 0-14.448h-476.8a7.224 7.224 0 0 0 0 14.448z"/></g><g><path fill="#1fa2ff" d="M164.187 437.726H374.24a7.224 7.224 0 0 0 0-14.448H166.1c-15.856-9.485-25.651-29.452-25.69-52.615 0-.657-.091-1.311-.272-1.943L78.825 150.922c-1.084-3.84-5.071-6.068-8.91-4.995a7.217 7.217 0 0 0-4.996 8.91L125.97 371.7c.35 28.765 13.617 53.666 34.772 65.152a7.224 7.224 0 0 0 3.446.874z"/></g></g></g><g><g><path fill="#c0c0ce" d="M583.134 599.007c8.557 0 17.543-10.102 19.974-22.452l27.26-138.54c2.427-12.35-2.583-22.452-11.14-22.452-8.556 0-17.543 10.103-19.974 22.452l-27.256 138.54c-2.43 12.35 2.58 22.452 11.136 22.452z"/></g><g><path fill="#c0c0ce" d="M626.322 599.007c8.557 0 18.526-10.102 22.152-22.452l40.686-138.54c3.626-12.35-.409-22.452-8.962-22.452-8.557 0-18.526 10.103-22.152 22.452l-40.685 138.54c-3.626 12.35.408 22.452 8.961 22.452z"/></g><g><g><g><path fill="#ef9d7f" d="M582.878 214.327c-2.106 16.629-2.677 32.858-2.085 49.595.369 8.34 1.124 16.753 2.64 25.291.796 4.277 1.767 8.586 3.118 12.97 1.35 4.447 3.16 8.774 5.176 12.77 4.056 8.018 8.965 15.274 14.542 21.927a119.742 119.742 0 0 0 18.626 18.064c6.86 5.32 14.336 10.023 22.59 13.407 8.235 3.29 17.326 5.454 26.577 4.79a6.443 6.443 0 0 0 .126-12.844l-.159-.015c-6.837-.621-13.57-2.893-19.826-6.371-6.274-3.424-12.209-7.773-17.58-12.82-10.648-10.102-19.854-22.35-25.67-35.284-1.437-3.244-2.56-6.408-3.41-9.673-.866-3.323-1.527-6.877-2.04-10.515-1-7.303-1.553-14.903-1.799-22.589-.318-7.682-.321-15.459-.097-23.25.086-7.755.47-15.723.83-23.272l.015-.3c.289-5.977-4.324-11.06-10.302-11.348-5.681-.271-10.557 3.922-11.272 9.466z"/></g><g><path fill="#1fa2ff" d="M586.511 189.09c-7.191-1.85-11.742 21.245-14.773 33.58-2.141 8.716-3.294 27.86-3.789 38.348-.177 3.836 3.038 6.96 6.867 6.66l30.232-2.35a6.381 6.381 0 0 0 5.877-6.047c.86-16.43 1.058-63.65-24.414-70.191z"/></g><g><path fill="#ffbea4" d="M656.594 560.685c-4.396 9.051-11.779 29.293-11.779 29.293l-12.62-3.096s5.953-24.529 8.337-31.673z"/></g><g><path fill="#ffbea4" d="M606.28 571.112c-3.392 9.052-8.76 29.293-8.76 29.293l-11.644-3.095s3.792-24.529 5.483-31.673z"/></g><g><path fill="#12d7fa" d="M494.042 207.312c3.597-17.446 18.962-29.932 36.69-29.932.238 0 .477.003.711.007l33.19.621c1.666.033 3.302.448 4.78 1.214l18.51 9.586v.004c13.257 6.866 20.26 21.903 17.035 36.567-16.001 72.824-13.924 132.49-13.9 133.083a10.851 10.851 0 0 1-3.456 8.361 10.83 10.83 0 0 1-8.593 2.829l-84.31-9.55a10.847 10.847 0 0 1-9.593-10.016c-4.497-64.756 3.67-117.248 8.936-142.774z"/></g><g><path fill="#fff" d="M563.42 170.13c10.843 0 19.664 8.825 19.664 19.668s-8.82 19.663-19.664 19.663c-10.843 0-19.663-8.82-19.663-19.663s8.82-19.667 19.663-19.667zm0 40.234c11.342 0 20.567-9.225 20.567-20.566 0-11.342-9.225-20.57-20.567-20.57-11.341 0-20.566 9.228-20.566 20.57 0 11.341 9.225 20.566 20.566 20.566z"/></g><g><path fill="#fff" d="M562.828 215.57l.076.003c2.932.057 5.248 3.482 5.165 7.635-.044 2.037-.65 3.937-1.712 5.346-1.012 1.34-2.316 2.073-3.677 2.077l-.08-.004c-1.39-.025-2.694-.816-3.67-2.225-1.007-1.452-1.535-3.373-1.491-5.41.04-2.037.646-3.937 1.708-5.346 1.015-1.34 2.319-2.077 3.68-2.077zm-.148 15.964c1.654 0 3.214-.863 4.399-2.435 1.177-1.56 1.846-3.648 1.893-5.873.09-4.652-2.623-8.488-6.047-8.556l-.097-.004c-1.655 0-3.215.863-4.4 2.435-1.177 1.56-1.849 3.648-1.892 5.873-.047 2.225.538 4.338 1.654 5.941 1.141 1.655 2.702 2.583 4.392 2.615z"/></g><g><path fill="#fff" d="M559.808 236.323l.076.004c1.394.025 2.698.816 3.67 2.225 1.004 1.452 1.538 3.37 1.495 5.41-.083 4.115-2.496 7.42-5.389 7.423l-.08-.003c-1.39-.03-2.694-.817-3.67-2.225-1.003-1.452-1.534-3.374-1.491-5.411.04-2.037.647-3.937 1.709-5.346 1.015-1.34 2.318-2.077 3.68-2.077zm-.152 15.965c3.385 0 6.202-3.702 6.296-8.307.047-2.225-.542-4.338-1.654-5.946-1.142-1.65-2.706-2.578-4.392-2.611l-.098-.004c-1.654 0-3.215.864-4.4 2.435-1.177 1.564-1.849 3.648-1.892 5.873-.047 2.225.538 4.334 1.654 5.942 1.142 1.65 2.702 2.579 4.392 2.615z"/></g><g><path fill="#17203a" d="M580.02 366.137l9.634-.01c6.404.054 12.786.238 19.18.545 12.782.643 25.59 1.704 38.492 3.51 12.895 1.788 25.88 4.234 38.998 7.903 13.097 3.663 26.41 8.55 39.63 16.168l2.478 1.38a22.57 22.57 0 0 1 3.443 2.398c9.445 7.993 10.626 22.127 2.633 31.572-.618.737-1.647 2.181-2.507 3.38l-2.702 3.873c-1.791 2.65-3.594 5.324-5.353 8.072-3.55 5.45-6.996 11.071-10.398 16.731-6.787 11.349-13.256 23.008-19.523 34.823-6.245 11.833-12.23 23.853-18.002 36.015-5.786 12.158-11.273 24.485-16.658 36.892l-22.492-7.505c3.352-13.386 6.837-26.772 10.67-40.097 3.821-13.324 7.9-26.61 12.306-39.843 4.435-13.224 9.134-26.407 14.292-39.533a747.023 747.023 0 0 1 5.523-13.516c-2.28-.748-4.602-1.46-6.971-2.113-10.251-2.879-21.17-4.97-32.302-6.509-11.136-1.564-22.539-2.517-33.989-3.092a434.003 434.003 0 0 0-17.207-.49l-8.568.01h-.083c-4.5.058-8.246-3.446-8.47-7.943l-2.095-42.36c3.753-.163 6.733-.214 10.042-.26z"/></g><g><path fill="#252f5a" d="M479.42 374.835l2.15-26.768a10.832 10.832 0 0 1 12.02-9.904l89.981 10.193a10.83 10.83 0 0 1 9.608 11.12l-.372 11.368c8.12 1.87 16.25 3.893 24.42 6.284 12.736 3.739 25.519 7.972 38.569 13.834h.004l2.03.867c.805.347 1.6.748 2.376 1.2 10.84 6.288 14.528 20.168 8.239 31.004-.567.983-1.38 2.6-2.084 3.995l-2.178 4.425-4.277 9.113c-2.824 6.133-5.544 12.389-8.235 18.67-5.346 12.588-10.41 25.392-15.3 38.294-4.89 12.91-9.518 25.955-14.014 39.074-4.487 13.126-8.738 26.353-12.903 39.63l-23.463-5.273c2.056-13.971 4.215-27.953 6.635-41.913 2.428-13.96 5.014-27.92 7.9-41.863 2.89-13.942 5.985-27.877 9.456-41.815a857.556 857.556 0 0 1 4.486-17.14 358.942 358.942 0 0 0-11.255-3.517c-11.103-3.258-22.694-5.902-34.324-8.39-11.652-2.475-23.51-4.527-35.394-6.416a886.827 886.827 0 0 0-10.532-1.574l-14-.74a31.319 31.319 0 0 1-10.33-2.36c-.214-.021-.434-.05-.644-.072l.019-.191a31.198 31.198 0 0 1-10.948-8.019c-5.61-6.415-8.322-14.624-7.64-23.116z"/></g><g><path fill="#1fa2ff" d="M593.381 342.493c.047 3.937.148 11.252.278 15.55a.892.892 0 0 1-.95.917c-9.275-.473-81.883-4.32-110.641-10.135a.868.868 0 0 1-.712-.856c-.029-1.98-.04-7.896.672-15.51a5.007 5.007 0 0 1 5.67-4.493c15.778 2.178 65.034 8.777 102.978 11.634a2.923 2.923 0 0 1 2.705 2.893z"/></g><g><path fill="#ffbea4" d="M564.431 203.292c3.464 0 6.939-1.239 9.71-3.75 19.33-17.546 21.357-45.149 21.527-48.24.43-7.969-5.678-14.777-13.646-15.207-7.965-.415-14.74 5.642-15.207 13.581-.332 5.172-3.157 20.353-12.096 28.47-5.91 5.36-6.35 14.498-.99 20.407a14.404 14.404 0 0 0 10.702 4.739z"/></g><g><path fill="#dd8b66" d="M571.605 166.222s37.141 8.698 12.273 27.058"/></g><g><path fill="#ffbea4" d="M572.27 134.936c-.105 2.532-.344 5.613-.568 8.423l-.809 8.531c-.307 2.785-.636 5.566-1.015 8.163a157.568 157.568 0 0 1-1.18 7.072l-.376 1.933c-2.71 13.96 6.41 27.472 20.367 30.181 12.295 2.384 24.244-4.417 28.766-15.61 1.578-3.894 2.789-7.383 3.923-10.818 1.123-3.42 2.098-6.708 3.048-9.998.943-3.28 1.806-6.513 2.648-9.756.841-3.298 1.61-6.34 2.405-9.944l.16-.719c3.452-15.657-6.445-31.153-22.102-34.606-15.662-3.453-31.157 6.44-34.61 22.102a31.202 31.202 0 0 0-.658 5.046z"/></g><g><path fill="#252f5a" d="M598.824 158.58a2.21 2.21 0 0 1-2.723 1.531 2.207 2.207 0 1 1 1.192-4.251 2.205 2.205 0 0 1 1.531 2.72z"/></g><g><path fill="#252f5a" d="M622.06 164.944a2.201 2.201 0 0 1-2.72 1.531 2.207 2.207 0 1 1 2.72-1.531z"/></g><g><path fill="#252f5a" d="M603.65 150.781l.726-1.278c-.34-.192-8.484-4.75-14.636-.701l.813 1.228c5.418-3.569 13.018.708 13.097.751z"/></g><g><path fill="#252f5a" d="M592.655 181.375l.845-1.2c-5.1-3.604-8.134-9.495-8.163-9.557l-1.31.668c.13.253 3.232 6.278 8.628 10.089z"/></g><g><path fill="#252f5a" d="M629.208 156.886l1.416-.383c-.018-.069-2.022-7.073-9.886-6.195l.163 1.46c6.675-.752 8.239 4.88 8.307 5.118z"/></g><g><path fill="#dd8b66" d="M604.011 177.326h6.36l-.162-.874c-1.069-5.697-.346-11.48 2.15-17.186l-1.348-.593c-2.488 5.697-3.29 11.472-2.394 17.179h-4.606z"/></g><g><path fill="#252f5a" d="M562.264 135.304c.224-12.306.502-17.821 6.968-18.02l-5.017-2.872s2.456-1.098 5.194.495c-2.131-4.414.393-7.65.393-7.65l2.413 8.322c4.074-9.124 16.377-16.817 35.462-7.834 17.406 8.192 28.82 7.932 28.82 7.932s-2.156 2.705-6.454 4.807c7.292.65 14.281.134 14.281.134-1.791 3.269-5.147 5.656-9.145 7.08 5.602.52 10.08.454 10.08.454-2.542 4.205-7.584 6.77-13.24 7.694 4.254 2.113 7.306 3.37 7.306 3.37-8.658 7.805-31.084 1.647-43.51-9.71-7.075 13.762-19.446 29.377-24.929 28.893-8.885-.784-8.98-3.442-8.622-23.095z"/></g><g><path fill="#ffbea4" d="M582.386 153.906c-2.987-8.998-7.874-14.058-13.483-7.026-8.148 10.211.773 26.798 6.7 20.982 5.927-5.811 6.783-13.956 6.783-13.956z"/></g><g opacity=".2"><path fill="#fff" d="M592.46 572.26c14.069-76.038 30.767-131.113 37.29-151.26 1.492-4.61-.863-9.66-5.36-11.501-50.929-20.816-123.121-28.867-123.843-28.947l-.102.896c.727.08 72.796 8.116 123.605 28.889 4.06 1.661 6.188 6.22 4.84 10.38-6.53 20.17-23.239 75.288-37.318 151.381z"/></g><g><path fill="#1fa2ff" d="M587.75 587.803c2.882 3.226 8.084 5.967 10.988 7.12.776.306 1.329.927 1.538 1.737 1.413 5.504 8.052 25.175 15.55 30.539 8.358 5.985-12.747 5.949-19.533-4.425-6.787-10.374-11.833-16.532-16.637-20.31-3.847-3.027-1.846-9.481 4.287-14.932 1.124-1 2.803-.852 3.807.271z"/></g><g><path fill="#1fa2ff" d="M633.644 581.822c3.536 2.488 9.225 3.98 12.317 4.442a2.513 2.513 0 0 1 1.889 1.348c2.626 5.042 13.548 22.694 22.065 26.222 9.496 3.934-11.067 8.68-20.028.116-8.962-8.568-15.272-13.422-20.809-16.015-4.428-2.074-3.944-8.817.795-15.514.87-1.228 2.54-1.466 3.77-.6z"/></g><g><path fill="#fff" d="M604.463 597.58c.863 0 1.593.2 2.102.402 1.698.671 2.702 1.975 2.788 2.857.037.404-.108.704-.437.917-3.03 1.932-7.267-1.51-8.52-2.637 1.495-1.184 2.907-1.538 4.067-1.538zm2.398 5.664a4.66 4.66 0 0 0 2.54-.726c.617-.394.92-1.022.852-1.766-.134-1.373-1.543-2.89-3.352-3.608-2.474-.983-5.198-.39-7.48 1.618a.432.432 0 0 0-.156.325.433.433 0 0 0 .13.329c.192.19 3.858 3.828 7.466 3.828z"/></g><g><path fill="#fff" d="M606.153 592.05c.047 0 .09 0 .134.004 1.015.069 1.293.874 1.344 1.532.079.943-.185 1.744-.799 2.445-1.61 1.842-5.118 2.406-6.53 2.565 1.141-4.291 4.07-6.545 5.851-6.545zm-6.436 7.503h.025c.22-.015 5.487-.318 7.77-2.926a4.062 4.062 0 0 0 1.022-3.11c-.116-1.398-.932-2.279-2.186-2.366-.058-.003-.119-.003-.18-.003-2.233 0-5.761 2.647-6.892 7.856a.46.46 0 0 0 .094.39.461.461 0 0 0 .347.159z"/></g><g><path fill="#fff" d="M653.502 587.493c.452 0 .853.05 1.181.119 1.781.372 2.991 1.48 3.226 2.337.105.393.018.715-.275.978-2.658 2.435-7.419-.249-8.842-1.148 1.655-1.839 3.403-2.286 4.71-2.286zm1.344 5.334c1.217 0 2.406-.332 3.395-1.231.542-.495.733-1.167.538-1.886-.364-1.329-2.008-2.586-3.915-2.98-2.593-.552-5.187.495-7.097 2.868a.44.44 0 0 0 .09.647c.198.14 3.691 2.582 6.989 2.582z"/></g><g><path fill="#fff" d="M653.578 581.807c.874 0 1.243.69 1.398 1.293.235.914.112 1.745-.372 2.543-1.268 2.084-4.627 3.24-5.996 3.637.401-4.53 3.02-7.278 4.782-7.462.065-.007.127-.01.188-.01zm-5.461 8.524a.481.481 0 0 0 .101-.01c.217-.051 5.357-1.254 7.155-4.208.614-1.008.773-2.092.477-3.24-.35-1.351-1.293-2.088-2.554-1.954-2.214.234-5.396 3.47-5.63 8.943a.45.45 0 0 0 .45.47z"/></g><g><path fill="#ffbea4" d="M483.679 246.043c3.77-16.882 9.066-32.598 16.163-48.324 2.334-5.133 8.293-7.69 13.657-5.693 5.606 2.088 8.46 8.33 6.368 13.935l-.14.38c-2.627 7.046-5.372 14.653-7.608 22.105-2.358 7.466-4.482 14.982-6.104 22.484-1.564 7.495-2.882 14.972-3.21 22.123-.384 7.083.263 14.022 2.405 18.494.328.805 1.538 2.871 2.488 4.471l3.034 4.988a188.333 188.333 0 0 0 6.422 9.612 131.468 131.468 0 0 0 14.477 17.348c10.352 10.36 22.98 17.785 37.38 20.01 4.786-.874 10.869-1.531 17.876-3.77 1.148-.365 2.434-.358 3.745-.12 7.037 1.275 14.466 15.492 12.567 22.387-1.178 4.277-7.109 1.2-13.693.238-14.271-2.08-31.562-2.145-31.793-5.594-.032-.463-.014-.85-.022-1.28-5.244-.83-10.427-2.206-15.38-4.146-8.426-3.453-16.105-8.365-22.979-13.974-6.913-5.595-12.88-12.06-18.384-18.71-2.72-3.356-5.292-6.798-7.759-10.28l-3.615-5.255c-1.21-1.853-2.233-3.197-3.732-6.032-2.647-5.06-3.973-10.168-4.753-15.03a74.853 74.853 0 0 1-.849-14.151c.278-9.135 1.557-17.804 3.439-26.216z"/></g><g><path fill="#1fa2ff" d="M522.23 178.333c7.375-.816 2.918 24.41 2.203 37.095-.716 12.678-4.775 36.438-4.775 36.438l-37.063-5.985c-2.586-.42-4.345-2.847-3.904-5.43 2.506-14.628 12.591-58.694 43.538-62.118z"/></g><g><path fill="#fff" d="M520.102 251.938c.043-.239 4.074-23.926 4.782-36.488.072-1.275.159-2.677.253-4.158.38-5.981.852-13.425.621-19.634l-.903.032c.231 6.166-.238 13.585-.621 19.548-.09 1.481-.177 2.883-.253 4.165-.704 12.508-4.732 36.145-4.768 36.383z"/></g><g><path fill="#37477c" d="M613.576 572.594l-2.592 9.526-28.483-4.763 1.693-11.722z"/></g><g><path fill="#252f5a" d="M664.768 562.758l-2.953 9.42-28.28-5.84 2.135-11.649z"/></g><g><g><path fill="#fff" d="M547.127 135.907v-21.058h.903v21.058z"/></g><g><path fill="#fff" d="M547.578 134.242c.246 0 .488.054.712.163.4.191.704.523.852.942a1.665 1.665 0 0 1-1.004 2.127c-.43.153-.878.13-1.275-.064a1.642 1.642 0 0 1-.849-.943h-.003c-.149-.419-.13-.87.06-1.271a1.672 1.672 0 0 1 1.507-.954zm-.004 4.233c.29 0 .582-.05.864-.151.65-.232 1.166-.701 1.463-1.322a2.523 2.523 0 0 0 .09-1.958 2.521 2.521 0 0 0-1.315-1.456 2.547 2.547 0 0 0-1.961-.097 2.528 2.528 0 0 0-1.456 1.318 2.557 2.557 0 0 0 1.22 3.417c.344.166.72.25 1.095.25z"/></g><g><path fill="#fff" d="M566.068 136.352c7.234 0 18.533-2.59 29.144-6.38 16.547-5.908 32.548-15.133 30.695-20.345l-4.826-13.51-.856.304 4.826 13.51c1.29 3.607-10.518 12.182-30.142 19.19-19.627 7.01-34.194 7.863-35.484 4.247l-4.822-13.512-.856.303 4.826 13.512c.672 1.868 3.446 2.68 7.495 2.68z"/></g><g><g><g><path fill="#fff" d="M632.376 76.88c.957 0 1.542.662 1.755 1.265.235.65.177 1.622-.74 2.225l-42.553 28.05a13.234 13.234 0 0 1-5.89 2.102l-50.694 5.252c-1.102.137-1.763-.603-1.99-1.253-.232-.647-.174-1.622.743-2.225l42.55-28.054a13.249 13.249 0 0 1 5.894-2.102l50.694-5.249c.08-.007.155-.01.231-.01zm-98.35 39.808c.105 0 .21-.007.318-.014l50.694-5.252a14.085 14.085 0 0 0 6.292-2.247l42.556-28.05c1.268-.835 1.466-2.25 1.098-3.284-.365-1.033-1.365-2.004-2.93-1.849l-50.693 5.245a14.132 14.132 0 0 0-6.296 2.25l-42.552 28.054c-1.268.838-1.467 2.25-1.098 3.283.34.957 1.267 1.864 2.61 1.864z"/></g><g><path fill="#fff" d="M544.912 110.483l38.37-3.973a14.132 14.132 0 0 0 6.296-2.25l21.993-14.5-.495-.754-21.993 14.498a13.224 13.224 0 0 1-5.891 2.106l-38.37 3.973z"/></g></g></g></g><g><path fill="#252f5a" d="M558.844 362.923l.122-.004a1.807 1.807 0 0 0 1.68-1.925c-.274-4.103.42-6.982 2.113-8.8 1.842-1.968 5.057-2.885 10.12-2.885a1.807 1.807 0 0 0 0-3.612c-6.132 0-10.185 1.282-12.757 4.031-2.42 2.586-3.424 6.35-3.08 11.511a1.81 1.81 0 0 0 1.802 1.684z"/></g><g><g><path fill="#f5f5f7" d="M555.723 347.391c-.137 1.683 4.248 3.42 9.8 3.876 5.547.455 10.16-.538 10.3-2.225l.116-1.42-20.1-1.654z"/></g><g><path fill="#252f5a" d="M555.839 345.968c-.138 1.683 4.25 3.42 9.799 3.876 5.551.458 10.164-.539 10.301-2.222.137-1.687-4.248-3.42-9.799-3.879-5.552-.455-10.16.538-10.301 2.225z"/></g><g><path fill="#f5f5f7" d="M558.125 346.156c-.08.964 3.334 2.03 7.621 2.384 4.288.35 7.83-.145 7.907-1.11.08-.96-3.33-2.03-7.621-2.38-4.288-.353-7.828.141-7.907 1.106z"/></g></g></g><g><g><path fill="#23d87d" d="M754.836 388.528c-.495 3.391-3.677 5.76-7.069 5.266l-209.71-30.6c-3.392-.495-5.761-3.674-5.266-7.066z"/></g><g><path fill="#16b260" d="M605.727 366.77a7.188 7.188 0 0 1-7.946 5.14l-59.724-8.717c-3.392-.494-5.761-3.673-5.266-7.068z"/></g><g><path fill="#23d87d" d="M608.743 369.558l139.934 20.422c6.058.881 12.48-3.24 14.271-9.16l28.206-93.073c1.795-5.92-1.69-11.49-7.744-12.371l-139.934-20.422c-6.058-.881-12.48 3.24-14.271 9.16l-28.206 93.073c-1.795 5.92 1.69 11.49 7.744 12.37z"/></g><g><path fill="#33ff9d" d="M611.925 370.024l139.935 20.418c6.053.885 12.475-3.236 14.27-9.16l28.206-93.07c1.795-5.923-1.69-11.489-7.744-12.374L646.654 255.42c-6.054-.885-12.476 3.24-14.27 9.16l-28.207 93.07c-1.791 5.923 1.694 11.489 7.748 12.374z"/></g><g><path fill="#fff" d="M613.048 366.08c-1.834-.268-3.352-1.214-4.269-2.663-.935-1.473-1.149-3.29-.592-5.114l28.205-93.07c1.153-3.807 5.245-6.443 9.142-5.873L785.47 279.78c1.835.27 3.352 1.217 4.27 2.665.935 1.474 1.148 3.291.591 5.115l-28.202 93.073c-1.155 3.8-5.244 6.433-9.145 5.87zm140.99 21.4c3.933 0 7.794-2.76 8.954-6.588l28.202-93.073c.632-2.08.386-4.16-.69-5.859-1.066-1.675-2.807-2.766-4.905-3.073L645.66 258.468c-4.295-.639-8.857 2.287-10.132 6.502l-28.206 93.073c-.635 2.077-.386 4.16.694 5.858 1.062 1.676 2.803 2.767 4.905 3.07l139.934 20.423c.394.057.788.086 1.182.086z"/></g><g><path fill="#fff" d="M707.628 337.433c.711 1.232.78 2.69.18 4.01a4.917 4.917 0 0 1-3.543 2.773c-2.637.513-5.28.582-7.838.21-5.642-.824-10.309-3.735-13.144-8.196-2.882-4.537-3.533-10.128-1.831-15.748 3.528-11.645 16.084-19.729 27.96-17.977 1.716.253 3.366.697 4.894 1.326 1.604.657 2.67 2.077 2.846 3.796.188 1.748-.574 3.388-2.03 4.389-4.29 2.943-7.433 7.14-8.845 11.822-1.452 4.778-.972 9.61 1.35 13.598zm-7.925 9.033c1.629 0 3.269-.158 4.909-.476a6.713 6.713 0 0 0 4.84-3.8c.845-1.86.747-3.923-.268-5.664-2.062-3.55-2.481-7.87-1.18-12.165 1.3-4.29 4.186-8.145 8.14-10.857 2.016-1.384 3.063-3.648 2.807-6.068-.253-2.388-1.734-4.36-3.959-5.274a22.577 22.577 0 0 0-5.32-1.445c-12.693-1.856-26.169 6.773-29.95 19.241-1.857 6.133-1.131 12.252 2.037 17.24 3.12 4.912 8.235 8.113 14.408 9.016 1.167.17 2.348.252 3.536.252z"/></g></g></g></g><g><g><path fill="#33ff9d" d="M775.482 174.396c14.747 0 26.746 12 26.746 26.747s-11.999 26.746-26.746 26.746c-14.748 0-26.747-11.999-26.747-26.746 0-14.748 12-26.747 26.747-26.747zm0 54.396c15.246 0 27.65-12.403 27.65-27.65 0-15.245-12.404-27.649-27.65-27.649-15.246 0-27.65 12.404-27.65 27.65 0 15.246 12.404 27.65 27.65 27.65z"/></g><g><path fill="#fff" d="M797.378 98.755c0 8.257 6.696 14.953 14.953 14.953 8.26 0 14.953-6.696 14.953-14.953 0-8.26-6.692-14.954-14.953-14.954-8.257 0-14.953 6.693-14.953 14.954z"/></g><g><path fill="#fff" d="M44.754 222.779c7.997 0 14.505 6.505 14.505 14.502 0 7.996-6.508 14.502-14.505 14.502-7.997 0-14.499-6.506-14.499-14.502 0-7.997 6.502-14.503 14.499-14.503zm0 29.907c8.499 0 15.408-6.91 15.408-15.405 0-8.496-6.91-15.406-15.408-15.406-8.492 0-15.402 6.91-15.402 15.406 0 8.495 6.91 15.405 15.402 15.405z"/></g><g><path fill="#252f5a" d="M481.35 829.577a8.803 8.803 0 0 0 8.802 8.806 8.803 8.803 0 0 0 8.805-8.806 8.803 8.803 0 0 0-8.805-8.803 8.802 8.802 0 0 0-8.803 8.803z"/></g><g><path fill="#ffa76c" d="M200.426 76.896l14.421 24.979h-28.843z"/></g><g><path fill="#ffa76c" d="M693.13 190.491l-7.059 26.35-19.291-19.288zm-6.593 28.094l.206-.755 7.665-28.614-29.37 7.867.55.556z"/></g><g><path fill="#252f5a" d="M65.459 308.43l-17.366 17.366-17.366-17.366 17.366-17.366z"/></g><g><path fill="#33ff9d" d="M51.64 79.57l.642-.638-39.08-39.08-.641.64z"/></g><g><path fill="#ffa76c" d="M822.54 380.77l-39.08 39.08-.639-.64 39.08-39.078z"/></g><g><path fill="#252f5a" d="M303.729 825.313l-39.079 39.079-.642-.642 39.08-39.08z"/></g></g></g></g></svg>
