<?xml version="1.0" standalone="no"?>
<!DOCTYPE svg PUBLIC "-//W3C//DTD SVG 20010904//EN"
 "http://www.w3.org/TR/2001/REC-SVG-20010904/DTD/svg10.dtd">
<svg version="1.0" xmlns="http://www.w3.org/2000/svg"
 width="255.000000pt" height="255.000000pt" viewBox="0 0 255.000000 255.000000"
 preserveAspectRatio="xMidYMid meet">
<metadata>
Created by potrace 1.11, written by Peter Selinger 2001-2013
</metadata>
<g transform="translate(0.000000,255.000000) scale(0.100000,-0.100000)"
fill="#000000" stroke="none">
<path d="M2077 2544 c-1 -1 -31 -5 -67 -8 -136 -14 -166 -17 -200 -22 -19 -2
-66 -7 -105 -10 -38 -3 -81 -7 -95 -9 -14 -3 -54 -7 -90 -10 -36 -3 -81 -8
-100 -10 -19 -2 -60 -7 -90 -10 -212 -21 -230 -25 -275 -44 -22 -10 -159 -97
-305 -193 -146 -96 -340 -224 -432 -284 -178 -116 -200 -139 -173 -180 18 -28
27 -30 110 -21 28 4 83 9 123 13 l72 6 0 -176 c0 -163 -2 -178 -20 -196 -11
-11 -20 -28 -20 -38 0 -22 30 -52 51 -52 45 1 67 69 29 92 -19 12 -20 24 -20
195 l0 183 38 1 c20 0 44 2 52 3 8 2 49 6 90 10 41 4 89 9 105 11 114 15 135
15 135 1 0 -10 -11 -12 -45 -8 -25 2 -45 2 -45 -1 0 -4 20 -18 45 -33 25 -14
45 -27 45 -28 0 -1 -9 -2 -21 -3 -77 -6 -111 -96 -113 -300 0 -31 -5 -53 -11
-53 -28 0 -49 35 -91 155 -40 117 -64 168 -64 139 0 -5 21 -68 46 -139 45
-128 65 -165 90 -165 23 0 26 -19 29 -173 3 -162 12 -207 46 -243 l20 -22 -21
-71 c-33 -113 -103 -241 -169 -312 -93 -99 -115 -147 -116 -244 0 -90 13 -126
71 -193 64 -76 176 -110 284 -88 42 8 114 53 154 95 42 44 71 47 146 12 132
-59 285 -58 422 2 111 49 190 125 247 239 40 78 136 357 173 498 10 41 24 90
30 109 l11 34 18 -24 c10 -13 19 -30 19 -36 0 -16 16 -17 25 -3 7 12 -30 77
-47 82 -7 3 -3 35 12 100 l22 95 47 6 c45 5 141 44 141 57 0 3 -30 21 -67 39
l-68 34 39 9 c57 12 136 55 179 96 20 20 37 40 37 44 0 4 -19 7 -42 7 -24 -1
-68 -1 -98 0 l-55 2 47 24 c45 24 128 98 128 114 0 5 -48 8 -107 7 -60 -1
-121 1 -136 4 l-29 5 46 29 c24 15 53 37 62 47 17 18 15 19 -32 20 -27 0 -56
2 -64 4 -8 1 -40 8 -71 14 l-57 12 15 30 c12 23 13 39 5 67 -18 65 -84 247
-95 257 -15 15 -1 -35 45 -163 39 -109 42 -136 19 -172 -8 -12 -17 -12 -68 4
-32 10 -79 29 -105 42 -48 24 -202 83 -291 110 l-48 15 58 38 c32 21 193 127
358 236 165 109 303 203 307 209 13 19 9 54 -8 71 -11 11 -31 15 -65 14 -27
-2 -50 -3 -52 -5z m112 -33 c17 -32 44 -12 -536 -394 l-192 -127 -65 3 c-36 1
-66 4 -66 7 0 3 92 65 205 139 112 74 202 138 199 143 -3 4 -31 -9 -62 -31
-157 -107 -396 -261 -407 -261 -6 0 -38 -9 -71 -19 -32 -11 -95 -22 -139 -26
-44 -3 -93 -8 -110 -10 -33 -5 -90 -11 -180 -20 -33 -3 -73 -8 -90 -10 -16 -2
-61 -7 -100 -11 -38 -4 -79 -8 -90 -9 -11 -1 -32 -3 -47 -4 -16 0 -28 -6 -28
-11 0 -7 19 -9 53 -5 28 3 77 8 107 10 30 3 69 8 85 10 30 5 99 12 188 20 l48
4 -7 -37 c-8 -42 -9 -45 -28 -48 -19 -3 -115 -13 -176 -19 -30 -3 -75 -7 -100
-10 -25 -3 -65 -7 -90 -9 -99 -10 -178 -18 -235 -25 -71 -8 -91 -5 -99 15 -10
26 6 44 78 91 39 26 195 128 346 228 151 100 314 207 362 238 48 32 103 64
124 73 43 18 30 16 349 50 28 3 66 7 85 9 19 2 64 7 100 10 68 6 101 10 185
20 28 3 77 8 110 11 33 2 71 7 85 9 14 2 57 6 95 10 39 4 72 8 73 10 7 7 33
-8 41 -24z m-1104 -593 c-11 -7 -34 -26 -50 -44 -18 -19 -45 -35 -66 -39 -34
-6 -36 -5 -47 31 -6 21 -9 40 -7 42 5 6 108 19 155 20 31 1 33 0 15 -10z
m-105 -104 c0 -15 -22 -44 -31 -39 -17 11 -10 41 11 42 11 1 20 -1 20 -3z
m-526 -449 c-4 -8 -1 -15 4 -15 6 0 12 8 15 18 4 16 4 16 12 0 10 -26 -1 -48
-25 -48 -11 0 -23 7 -26 15 -7 18 2 45 15 45 6 0 8 -7 5 -15z"/>
</g>
</svg>
